/* XPM */
static const char *bWluZXJhbHMtcGl4[] = {
/* columns rows colors chars-per-pixel */
"32 32 212 2 ",
"   c #045A98",
".  c #0D6499",
"X  c #22749E",
"o  c #005AA9",
"O  c #0065A3",
"+  c #0670A8",
"@  c #1374AE",
"#  c #1474BC",
"$  c #2A7DA7",
"%  c #087BC7",
"&  c #1A7BD2",
"*  c #227DC2",
"=  c #0076ED",
"-  c #027CEC",
";  c #0D7AEC",
":  c #2086AC",
">  c #3086A3",
",  c #3794AB",
"<  c #399FB5",
"1  c #1987C9",
"2  c #168DCE",
"3  c #1D81C7",
"4  c #1086D1",
"5  c #1794D0",
"6  c #2787C9",
"7  c #2E90C0",
"8  c #2696CE",
"9  c #2680D1",
"0  c #2B9BD8",
"q  c #3B95D3",
"w  c #1AB2DE",
"e  c #15B6DD",
"r  c #2AA2C6",
"t  c #3EAEC5",
"y  c #2AA4DA",
"u  c #2DABD3",
"i  c #35BADA",
"p  c #0F8DE9",
"a  c #1483EE",
"s  c #1987ED",
"d  c #1D8BED",
"f  c #1A86E4",
"g  c #009EEC",
"h  c #188AF1",
"j  c #009EF6",
"k  c #218EEE",
"l  c #2693ED",
"z  c #2B99ED",
"x  c #2C9AE7",
"c  c #339EEC",
"v  c #2997F1",
"b  c #209BFF",
"n  c #2096F4",
"m  c #03A5EC",
"M  c #0AA5EC",
"N  c #03ADED",
"B  c #0CACEC",
"V  c #10A6EF",
"C  c #17AAEA",
"Z  c #0BB3ED",
"A  c #0CBDEE",
"S  c #05B6E9",
"D  c #13B6E4",
"F  c #13B5EB",
"G  c #18B5EA",
"H  c #1DBBEA",
"J  c #16BCE9",
"K  c #09A7F0",
"L  c #07ACF7",
"P  c #0BADF4",
"I  c #13ACF3",
"U  c #1BA9F1",
"Y  c #02B3F3",
"T  c #0FB1F7",
"R  c #0BB4FE",
"E  c #02BBF4",
"W  c #19B8F7",
"Q  c #2BACE1",
"!  c #25AFE9",
"~  c #34ACE2",
"^  c #35A1EE",
"/  c #3EA6EE",
"(  c #28B8E5",
")  c #27B9ED",
"_  c #27B5ED",
"`  c #37B9E1",
"'  c #33A2F6",
"]  c #39A7F9",
"[  c #23B9F2",
"{  c #469CCF",
"}  c #52A9CF",
"|  c #4DBBC2",
" . c #59BBD3",
".. c #46AEEE",
"X. c #48AEEF",
"o. c #45A7E3",
"O. c #4BB8EE",
"+. c #50B7EF",
"@. c #58BEEE",
"#. c #49B3F4",
"$. c #44B5FF",
"%. c #53BBF3",
"&. c #53BCFF",
"*. c #02C3ED",
"=. c #0AC4ED",
"-. c #0ACBED",
";. c #05CAEE",
":. c #14C3EE",
">. c #13CCEE",
",. c #1CC8EE",
"<. c #0AD4EE",
"1. c #07DDEF",
"2. c #08DAEF",
"3. c #19D3ED",
"4. c #10DAEE",
"5. c #12D7ED",
"6. c #06C5F3",
"7. c #0DC5F3",
"8. c #04CCF3",
"9. c #09CCF2",
"0. c #00CBFF",
"q. c #0DCAF8",
"w. c #0EC4F8",
"e. c #12C4F5",
"r. c #1BC7F1",
"t. c #13CCF4",
"y. c #1CCBF4",
"u. c #14CCF9",
"i. c #0AD1F3",
"p. c #0ADBF1",
"a. c #00D4FE",
"s. c #0ED3FD",
"d. c #03DFFF",
"f. c #0DDCFD",
"g. c #07D5F0",
"h. c #1AD2F5",
"j. c #16DEF7",
"k. c #14D4FB",
"l. c #1CD3F8",
"z. c #12DCFC",
"x. c #1BDBFB",
"c. c #2AC6EF",
"v. c #22CAEF",
"b. c #29CFEF",
"n. c #3FCFE8",
"m. c #32C5EB",
"M. c #27DCEC",
"N. c #39D2ED",
"B. c #2DCDF6",
"V. c #2BC7F8",
"C. c #34C5F8",
"Z. c #23DCF3",
"A. c #21D7F3",
"S. c #3ED3F6",
"D. c #3BDDF3",
"F. c #09E2EF",
"G. c #09E0F0",
"H. c #03E6FE",
"J. c #07EFFD",
"K. c #0BEBFE",
"L. c #07E3F6",
"P. c #18E6FF",
"I. c #11ECFE",
"U. c #1FEDFF",
"Y. c #14E6F6",
"T. c #00F3FE",
"R. c #0DF4FF",
"E. c #00FFFE",
"W. c #0DFDFF",
"Q. c #16F3FF",
"!. c #19FFFF",
"~. c #1AF1FC",
"^. c #2FEFFF",
"/. c #28E4F6",
"(. c #37E7F8",
"). c #27F5FD",
"_. c #23FEFE",
"`. c #3EF6FF",
"'. c #51CFDC",
"]. c #6CC9DE",
"[. c #49DAEA",
"{. c #44DCEF",
"}. c #5EC3F3",
"|. c #44DBF0",
" X c #60D8EF",
".X c #69CCF2",
"XX c #66CAF1",
"oX c #75DDFE",
"OX c #72D9F2",
"+X c #4DE1ED",
"@X c #58E9EB",
"#X c #48EFF4",
"$X c #4AECF9",
"%X c #42E2F0",
"&X c #57ECF4",
"*X c #4CFFFD",
"=X c #4FF1FB",
"-X c #5FFFFF",
";X c #61ECEC",
":X c #64EAFA",
">X c #7CE3F7",
",X c #6BFEFD",
"<X c #82DDE9",
"1X c #8EE5F7",
"2X c #84EBFE",
"3X c #8CECFD",
"4X c #82E3FA",
"5X c #93E9F6",
"6X c #93E7F9",
"7X c #88F5FC",
"8X c #94F5FF",
"9X c None",
/* pixels */
"9X9X9X9X9X9X9X9X9X9X9X9X9X9X9X9X9X9X9X9X9X9X9X9X9X9X9X9X9X9X9X9X",
"9X9X9X9X9X9X9X9X9X9X9X9X9X9X9X$X'.9X9X9X9X9X9X9X9X9X9X9X9X9X9X9X",
"9X9X9X9X9X9X9X9X9X9X9X9X9X9X9XP.@X$   9X9X9X9X9X9X9X9X9X9X9X9X9X",
"9X9X9X9X9X9X9X9X9X9X9X9X9X9Xy.a.=X|   X 9X9X9X9X9X9X9X9X9X9X9X9X",
"9X9X9X9X9X9X9X9X9X9X9X9X9Xv.x.i.(.;X. + X 9X9X9X9X9X9X9X9X9X9X9X",
"9X9X9X9X9X9X9X9X9X9X9X9X9Xr.t.x.J.-X .  O . 9X9X9X9X9X9X9X9X9X9X",
"9X9X9X9X9X9X9X9X9X9X9X9X,.k.u.U.E.,X,X[.t : 9X9X9X9X9X9X9X9X9X9X",
"9X9X9X9X9X9X9X9X9X9X9X9X:.t.l.T.*X7X_.H.C.` u 9X9X9X9X9X9X9X9X9X",
"9X9X9X9X9X9X9X9X9X9X9X9Xk.e.h.T.,X*XE.s.j g I Q 9X9X9X9X9X9X9X9X",
"9X9X9X9X9X9X9X9X9X9X9Xc.0.y.8.(.$Xd.z.R V M K y 9X9X9X9X9X9X9X9X",
"9X9X9X9X9X9X9X9X9X9X9X[.B.6.h.{.I L P M M m I 0 9X9X9X9X9X9X9X9X",
"9X9X9X9X9X9X9X9X9X9X9X#X`.{.+X) m B M M B m W 8 9X9X9X9X9X9X9X9X",
"9X9X9X9X9X9X9X9X9X9X9X#XE.).%XV N B B B B N [ 6 9X9X9X9X9X9X9X9X",
"9X9X9X9X9X9X9X9X9X9X9X&X_.T.).N.N Z B N B Y ) 6 9X9X9X9X9X9X9X9X",
"9X9X9X9X9X9X9X9X9X9X9X9X_.I.K.(.m.N F G Z Z _ * 9X9X9X9X9X9X9X9X",
"9X9X9X9X9X9X9X9X9X9X9X9X^.H.P.K.(.H F ( Z A ! 9X9X9X9X9X9X9X9X9X",
"9X9X9X9X9X9X9X9X9X9X9X9XD.z.Z.j./.n.D H G H Q 9X9X9X9X9X9X9X9X9X",
"9X9X9X9X9X9X9X9X9X9X9X9X|.x.A.A.Z.N.G H H H y 9X9X9X9X9X9X9X9X9X",
"9X9X9X7X:Xo # 9X9X9X9X9XS.d.k.k.x.b.S A A =.5 9X9X9X9X9X9X9X9X9X",
"9X9X9X6X2Xr % 4 % & 9X9XS.f.k.s.l.v.*.=.=.6.2 9X9X9X9X9X9X9X9X9X",
"9X9X9X6X4X X~ ~ x n f 9X9Xz.u.q.l.v.*.=.=.9.2 9X9X9X9X9X9X9X9X9X",
"9X9X5X8X>XO.= a h s b 9 i s.e.q.y.,.;.=.9.q.1 9X9X9X9X9X9X9X9X9X",
"9X9X6X3XOXp ; a s d l v 7 m.w.e.y.>.;.-.9.q.3 9X9X9XI.9X9X9X9X9X",
"9X9X1X3X@.= s s d l z ' 6 , B.E r.>.9.9.i.7.9X9XZ.Q.R.9X9X9X9X9X",
"9X9X1X2Xz - d k l z c / q > C.Y r.<.<.-.g.:.9X9Xw.S K.9X9X9X9X9X",
"9X9X5XoX- d k l z ^ / #.q < V.Y r.<.<.<.p.D 9Xw 6.-.4.9X9X9X9X9X",
"9X9X3X&.- l l z ^ / ..%.{ t W P >.2.<.<.L.e 9X3.z.f.3.9XM.9X9X9X",
"9X9X9X] h l z ^ / ..+.}.} ` T I t.1.p.p.K.w 9X~.f.=.9X9XQ.9X9X9X",
"9X9X9X@ l ' ^ / X.+.@..X .` R I i.G.p.1.W.9X9X!.s.9X9Xs.5.9X9X9X",
"9X9X9X9X9X0 $.#.%.}.XXoX].9XU R 2.F.F.K.M.9X9Xh.B 9XC J 9X9X9X9X",
"9X9X9X9X9X9Xo.%.}..XOX2X<X9X9XH I.R.Y.9X9X9X9X9X9X9X9X9X9X9X9X9X",
"9X9X9X9X9X9X9X9X9X9X9X9X9X9X9X9X9X9X9X9X9X9X9X9X9X9X9X9X9X9X9X9X"
};
