/* XPM */
static const char *emVhbG90X2VuZW15Ml9waXg_[] = {
/* columns rows colors chars-per-pixel */
"32 32 217 2 ",
"   c #001214",
".  c #1D2916",
"X  c #323113",
"o  c #363411",
"O  c #3B3B13",
"+  c #3E391B",
"@  c #422200",
"#  c #413A17",
"$  c #354135",
"%  c #4C4217",
"&  c #504217",
"*  c #584811",
"=  c #5E4E15",
"-  c #745400",
";  c #6D5B19",
":  c #715811",
">  c #725A15",
",  c #775E18",
"<  c #7B600B",
"1  c #776015",
"2  c #40422F",
"3  c #675B36",
"4  c #196C75",
"5  c #38686E",
"6  c #5A5757",
"7  c #716C71",
"8  c #726D7C",
"9  c #70717E",
"0  c #8C6300",
"q  c #836800",
"w  c #80680E",
"e  c #8A6C0A",
"r  c #96710E",
"t  c #94720F",
"y  c #95790F",
"u  c #9D780D",
"i  c #856613",
"p  c #846717",
"a  c #876812",
"s  c #8E6A16",
"d  c #8E6D17",
"f  c #80661C",
"g  c #927111",
"h  c #957212",
"j  c #967313",
"k  c #987210",
"l  c #A57E03",
"z  c #A27B07",
"x  c #A47C07",
"c  c #AD7900",
"v  c #AA7E06",
"b  c #A1790A",
"n  c #A37B0C",
"m  c #A47C0D",
"M  c #A47C0E",
"N  c #A67E0E",
"B  c #BB7E00",
"V  c #A37D14",
"C  c #856523",
"Z  c #856925",
"A  c #8F6D23",
"S  c #A58102",
"D  c #A78008",
"F  c #AB8009",
"G  c #AF860A",
"H  c #AA810D",
"J  c #AA820E",
"K  c #B28200",
"L  c #B18502",
"P  c #B48500",
"I  c #B78400",
"U  c #B18507",
"Y  c #B88500",
"T  c #B68903",
"R  c #BE8F03",
"E  c #BE8E06",
"W  c #B6890B",
"Q  c #BA8B0F",
"!  c #BA8E0C",
"~  c #BB8E0C",
"^  c #B08314",
"/  c #A68023",
"(  c #AE8622",
")  c #AB8325",
"_  c #BC9023",
"`  c #BE9638",
"'  c #C88F00",
"]  c #C99605",
"[  c #CA9605",
"{  c #CB9605",
"}  c #CB9705",
"|  c #C89506",
" . c #C99506",
".. c #C89606",
"X. c #C99607",
"o. c #CF9A03",
"O. c #CF9B03",
"+. c #CB9906",
"@. c #CC9805",
"#. c #CD9905",
"$. c #CE9904",
"%. c #CF9904",
"&. c #CE9905",
"*. c #CF9A04",
"=. c #CF9B04",
"-. c #C49208",
";. c #C0920C",
":. c #C7950E",
">. c #CA9708",
",. c #D09A00",
"<. c #D39A00",
"1. c #D09A03",
"2. c #D09B03",
"3. c #D19B03",
"4. c #D19C00",
"5. c #D19C01",
"6. c #D29C01",
"7. c #D29D01",
"8. c #D29C03",
"9. c #D49E02",
"0. c #D49E03",
"q. c #D69F03",
"w. c #D19C04",
"e. c #D19D05",
"r. c #D39D04",
"t. c #D19C06",
"y. c #D49E04",
"u. c #D29D09",
"i. c #D19D0E",
"p. c #CA9611",
"a. c #C79719",
"s. c #D49F19",
"d. c #D8A102",
"f. c #DEA400",
"g. c #D8A304",
"h. c #DAA305",
"j. c #E2AA04",
"k. c #C89525",
"l. c #CC9925",
"z. c #B59558",
"x. c #BEA04D",
"c. c #357884",
"v. c #007BD7",
"b. c #328197",
"n. c #248FA9",
"m. c #348BA3",
"M. c #3391AC",
"N. c #3691AC",
"B. c #3894AB",
"V. c #3A97AB",
"C. c #359BB7",
"Z. c #3B9BB0",
"A. c #3C98B0",
"S. c #36A0BE",
"D. c #428DA1",
"F. c #679CA9",
"G. c #6F84B2",
"H. c #6FABBB",
"J. c #36A4C0",
"K. c #35AACB",
"L. c #35B1D7",
"P. c #00DAFF",
"I. c #28C1EA",
"U. c #3BC4EE",
"Y. c #25CBFA",
"T. c #21CBFC",
"R. c #37CDFA",
"E. c #3CCFFA",
"W. c #34D1FF",
"Q. c #37D1FF",
"!. c #34D2FF",
"~. c #39DBFF",
"^. c #38DCFF",
"/. c #3DEDFF",
"(. c #4FC1DE",
"). c #9290A8",
"_. c #9294AB",
"`. c #9B94AC",
"'. c #9999B6",
"]. c #9F9FBC",
"[. c #8297C7",
"{. c #8897C6",
"}. c #8EA5D9",
"|. c #A3A2C0",
" X c #A4A5C5",
".X c #A6A5C6",
"XX c #A5A5CA",
"oX c #A9A7CC",
"OX c #ACABCD",
"+X c #ADACD2",
"@X c #AAB0DB",
"#X c #B0B2D9",
"$X c #B6B4DC",
"%X c #B8B7E0",
"&X c #B7BAE7",
"*X c #BEBDE7",
"=X c #C3C4EE",
"-X c #C7C5F3",
";X c #C7C9F8",
":X c #C9CAFA",
">X c #CCCCFD",
",X c #CDCDFD",
"<X c #CECFFF",
"1X c #D5CFFB",
"2X c #D0CEFC",
"3X c #D0D1FF",
"4X c #D1D2FF",
"5X c #D2D2FF",
"6X c #D4D2FF",
"7X c #D3D4FF",
"8X c #D4D5FF",
"9X c #D9D7FF",
"0X c #DBD7FF",
"qX c #D9D9FF",
"wX c #DADAFF",
"eX c #DBDBFF",
"rX c None",
/* pixels */
"rXrXrXrXrXrXrXrXrXrXrXrXrXrXrX).rXrXrXrXrXrXrXrXrXrXrXrXrXrXrXrX",
"rXrXrXrXrXrXrXrXrXrXrXrXrX8 6X7XwX|.rXrXrXrXrXrXrXrXrXrXrXrXrXrX",
"rXrXrXrXrXrXrXrXrXrXrXrXrX+X4X:X4X*XrXrXrXrXrXrXrXrXrXrXrXrXrXrX",
"rXrXrXrXrXrXrXrXrXrXrXrXrX*X>X;X>X%XrXrXrXrXrXrXrXrXrXrXrXrXrXrX",
"rXrXrXrXrXrXrXrXrXrXrXrXrX-X4X>X>X$XrXrXrXrXrXrXrXrXrXrXrXrXrXrX",
"rXrXrXrXrXrXrXrXrXrXrXrXrX1X&X@X4XOXrXrXrXrXrXrXrXrXrXrXrXrXrXrX",
"rXrXrXrX$ O rXrXrXrXrXrX7 }.v.[.0XoXrXrXrXrXrXrXrXrXrXrXrXrXrXrX",
"rXrXrXrXrXV.5 rXrXrXrXrX6 G.{.=X8X.XrXrXrXrXrXrXrXrXrXrXrXrXrXrX",
"rXrXrXrXrXV.E.c.rXrXrXrX`.0X2X:X7X].rXrXrXrXrXrXrXrXrXrXrXrXrXrX",
"rXrXrXrXrXrXL.^.M.rXrXrXrXwX4X>XwX.XrXrXrXrXrXrXrXrXrXrXrXrXrXrX",
"rXrXrXrXrXrXrXR.!.K.2 rXrX#XXX'._.9 rXrXrXrXrXrXrXrXrXrXrXrXrXrX",
"rXrXrXrXrXrXrXC.!.!.Y.4 @ - 0 K P Y f N A rXrXrXrXrXrXrXrXrXrXrX",
"rXrXrXrXrXrXrXrXU.T.F.` S Z ) k.l.s.P p.f.q rXrXrXrXrXrXrXrXrXrX",
"rXrXrXrXrXrXrXrXA.I.B ,.i.L T l R O.^ ' x.(.rXrXrXrXrXrXrXrXrXrX",
"rXrXrXrXrXrXrXrXrXn.z.,.:.#.#.z  .,./ c H.P.D.rXrXrXrXrXrXrXrXrX",
"rXrXrXrXrXrXrXrXrXrX3 4.u.w.E U #.,.( rXS.~.J.rXrXrXrXrXrXrXrXrX",
"rXrXrXrXrXrXrXrXrXrXrX1 x v D  . .#._ rXZ./.N.rXrXrXrXrXrXrXrXrX",
"rXrXrXrXrXrXrXrXrXrXrXrXrXF #. . .#.a.rXb.m.rXrXrXrXrXrXrXrXrXrX",
"rXrXrXrXrXrXrXrXrXrXrXrXrXn 4. . . .0.C rXrXrXrXrXrXrXrXrXrXrXrX",
"rXrXrXrXrXrXrXrXrXrXrXrXrXa w. . . .,.H rXrXrXrXrXrXrXrXrXrXrXrX",
"rXrXrXrXrXrXrXrXrXrXrXrXrXrXw.0.O.4.4.~ rXrXrXrXrXrXrXrXrXrXrXrX",
"rXrXrXrXrXrXrXrXrXrXrXrXrX. e ~ W N < rXrXrXrXrXrXrXrXrXrXrXrXrX",
"rXrXrXrXrXrXrXrXrXrXrXrX+ rXrXrXrXrX  rXrXrXrXrXrXrXrXrXrXrXrXrX",
"rXrXrXrXrXrXrXrXrXrXrX# rXrXrXrXrXrXrXo rXrXrXrXrXrXrXrXrXrXrXrX",
"rXrXrXrXrXrXrXrXrXrXrXt : rXrXrXrXrXrXrXX & rXrXrXrXrXrXrXrXrXrX",
"rXrXrXrXrXrXrXrXrXrXrX>.H rXrXrXrXrXrXrXrX% t -.N i rXrXrXrXrXrX",
"rXrXrXrXrXrXrXrXrXrXG ,.+.= rXrXrXrXrXrXrXrXrXh 0.4.;.rXrXrXrXrX",
"rXrXrXrXrXrXrXrXrXQ 4. .w.w rXrXrXrXrXrXrXrXrXrXu #.0.h rXrXrXrX",
"rXrXrXrXrXrXrXrXrXd g.4.g.> rXrXrXrXrXrXrXrXrXrX*  .y.y rXrXrXrX",
"rXrXrXrXrXrXrXrXrXrXp V s rXrXrXrXrXrXrXrXrXrXrXrXb d.g rXrXrXrX",
"rXrXrXrXrXrXrXrXrXrXrXrXrXrXrXrXrXrXrXrXrXrXrXrXrXk j., rXrXrXrX",
"rXrXrXrXrXrXrXrXrXrXrXrXrXrXrXrXrXrXrXrXrXrXrXrXrXrX; rXrXrXrXrX"
};
