/* XPM */
static const char *emVhbG90X2VuZW15MXJvdF9waXg_[] = {
/* columns rows colors chars-per-pixel */
"32 32 209 2 ",
"   c #00000B",
".  c #00140E",
"X  c #1C2711",
"o  c #333616",
"O  c #33351E",
"+  c #413916",
"@  c #374632",
"#  c #4C4414",
"$  c #534510",
"%  c #774700",
"&  c #765400",
"*  c #785200",
"=  c #645112",
"-  c #67551F",
";  c #7B660F",
":  c #766011",
">  c #756017",
",  c #776116",
"<  c #7A6011",
"1  c #7F6114",
"2  c #6D603B",
"3  c #0F4466",
"4  c #3F6E7A",
"5  c #746C62",
"6  c #81650E",
"7  c #8B6C09",
"8  c #8C6B0E",
"9  c #987400",
"0  c #9F7806",
"q  c #95730A",
"w  c #9F790E",
"e  c #836616",
"r  c #876A12",
"t  c #826914",
"y  c #846914",
"u  c #806318",
"i  c #81671D",
"p  c #80691E",
"a  c #8B6A18",
"s  c #906F11",
"d  c #907111",
"f  c #937112",
"g  c #927116",
"h  c #987510",
"j  c #9D7712",
"k  c #937218",
"l  c #A17400",
"z  c #A87D00",
"x  c #A47B0C",
"c  c #A57E0C",
"v  c #A67F19",
"b  c #A17A1C",
"n  c #8D6E24",
"m  c #987522",
"M  c #876D41",
"N  c #A88500",
"B  c #AA800B",
"V  c #AD810A",
"C  c #AB820E",
"Z  c #AD840C",
"A  c #AD850C",
"S  c #BA8600",
"D  c #BC8700",
"F  c #B58907",
"G  c #BA8B00",
"H  c #BE8C00",
"J  c #B5880D",
"K  c #B88B0A",
"L  c #BA8C08",
"P  c #B98D0B",
"I  c #BD8F0A",
"U  c #AE8626",
"Y  c #C28B00",
"T  c #C69200",
"R  c #C59407",
"E  c #C69406",
"W  c #C89703",
"Q  c #CF9600",
"!  c #C99704",
"~  c #CA9705",
"^  c #C89706",
"/  c #C99707",
"(  c #CE9900",
")  c #CB9906",
"_  c #CF9B04",
"`  c #CE9B05",
"'  c #CF9B05",
"]  c #CE9D06",
"[  c #C59508",
"{  c #C8960B",
"}  c #C8960D",
"|  c #C9970E",
" . c #D09700",
".. c #D29800",
"X. c #D09C00",
"o. c #D29C00",
"O. c #D39D03",
"+. c #D39E03",
"@. c #D49E00",
"#. c #D09C04",
"$. c #D19D04",
"%. c #D19D05",
"&. c #D39E04",
"*. c #D39F04",
"=. c #D29E05",
"-. c #D19D06",
";. c #D09D07",
":. c #D09D08",
">. c #D39E0F",
",. c #C8971E",
"<. c #C9981E",
"1. c #D4A005",
"2. c #D5A005",
"3. c #D6A004",
"4. c #D7A105",
"5. c #D8A201",
"6. c #D9A304",
"7. c #D8A205",
"8. c #DDA705",
"9. c #D4A10A",
"0. c #D7A211",
"q. c #D8A312",
"w. c #D4A11D",
"e. c #D7A226",
"r. c #AB8743",
"t. c #357E8E",
"y. c #006CB9",
"u. c #7E7981",
"i. c #777890",
"p. c #0074DA",
"a. c #827D8C",
"s. c #368594",
"d. c #368698",
"f. c #36889C",
"g. c #388B9F",
"h. c #3C8B9F",
"j. c #368CA5",
"k. c #3492AC",
"l. c #349DBB",
"z. c #349FBB",
"x. c #38A0BF",
"c. c #6E8D8C",
"v. c #739BA3",
"b. c #3DA3C5",
"n. c #38A4C7",
"m. c #33A5C8",
"M. c #34ABCD",
"N. c #34B3D8",
"B. c #36B4DB",
"V. c #36B5DD",
"C. c #008EF4",
"Z. c #009EFF",
"A. c #7394CB",
"S. c #7897CF",
"D. c #49B4D8",
"F. c #00C3F4",
"G. c #27C3F2",
"H. c #37CEFD",
"J. c #2BDAFF",
"K. c #36D6FF",
"L. c #37D6FF",
"P. c #38D6FF",
"I. c #36D9FF",
"U. c #3BD9FF",
"Y. c #3BDCFF",
"T. c #82808D",
"R. c #8A8798",
"E. c #8F8DA6",
"W. c #9390A6",
"Q. c #9590AB",
"!. c #9E96AC",
"~. c #8192B8",
"^. c #9895B0",
"/. c #9A97B5",
"(. c #9F9EBF",
"). c #A79FB8",
"_. c #A1A0BF",
"`. c #979EC7",
"'. c #A0A2C3",
"]. c #A4A1C2",
"[. c #ACA9CD",
"{. c #ADABCD",
"}. c #AEADD2",
"|. c #A8AEDA",
" X c #B1ABD1",
".X c #B3B0D5",
"XX c #B6B1D8",
"oX c #B4B2D9",
"OX c #B8B5DB",
"+X c #BEBEEB",
"@X c #C6C1E7",
"#X c #CEC8F4",
"$X c #CBC9F9",
"%X c #CDCDFF",
"&X c #CECCFE",
"*X c #D0CDFD",
"=X c #D0CEFF",
"-X c #D2CFFF",
";X c #D2D0FF",
":X c #D6D4FF",
">X c #D7D4FF",
",X c #D6D5FF",
"<X c #D7D5FF",
"1X c #DCD8FF",
"2X c #DDD8FF",
"3X c #DCDAFF",
"4X c #E2E0FF",
"5X c #E3E0FF",
"6X c None",
/* pixels */
"6X6X6X6X6X6X6X6X6X6X6X6X6X6X6X6X6X6X6X6X6X6X6X6X6X6X6X6X6X6X6X6X",
"6X6X6X6X6X6X6X6X6X6X6X6X6X6X/. X_.6X6X6X6X6X6X6X6X6X6X6X6X6X6X6X",
"6X6X6X6X6X6X6X6X6X6X6X6X6XQ.5X;X5XXX6X6X6X6X6X6X6X6X6X6X6X6X6X6X",
"6X6X6X6X6X6X6X6X6X6X6X6X6X].<X$X%X=X6X6X6X6X6X6X6X6X6X6X6X6X6X6X",
"6X6X6X6X6X6X6X6X6X6X6X6X6XE.<X=X;X<XW.6X6X6X6X6X6X@ 6X6X6X6X6X6X",
"6X6X6X6X6X6X6X6X6X6X6X6X6X6X=X+X}.3X^.6X6X6X6X6X6Xs.6X6X6X6X6X6X",
"6X6X6X6X6X6X6X6X6X6X6X6X6X6X@XS.p.~.u.6X6X6X6X6Xk.l.6X6X6X6X6X6X",
"6X6X6X6X6X6X6X6X6X6X6X6X6X6X.X|.A.`.a.6X6X6X6X6XM.l.6X6X6X6X6X6X",
"6X6X6X6X6X6X6X6X6X6X6X6X6X6X[.<X#X3X[.6X6X6X6X6XU.6X6X6X6X6X6X6X",
"6X6X6X6X6X6X6X6X6X6X6X6X6X6XXX3X%X<XOX6X6X6X6XN.H.6X6X6X6X6X6X6X",
"6X6X6X6X6X6X6X6X6X6X6X1 6X6XR.'.!.).(.6X6X6Xf.I.V.6X6X6X6X6X6X6X",
"6X6X6X6X6X6X6X6X6Xv _ L ; k H l * Y G - 6X% D.J.x.6X6X6X6X6X6X6X",
"6X6X6X6X6X6X6X6X9 T 0.q 6X6Xw.e.U a H N m S v.G.4 6X6X6X6X6X6X6X",
"6X6X6X6X6X6X6Xb.F.c.D 6X6Xy *.{ O.M y.2 O.q...& 6X6X6X6X6X6X6X6X",
"6X6X6X6X6X6Xd.L.P.h.6X6X6X8 2.<.Q T.Z.3 6Xb n 6X6X6X6X6X6X6X6X6X",
"6X6X6X6X6X6XB.L.t.6X6X6X6Xh *.,. .i.C.6X6X6X6X6X6X6X6X6X6X6X6X6X",
"6X6X6X6X6X6XY.j.6X6X6X6X6XA *.} ( r.5 6X6X6X6X6X6X6X6X6X6X6X6X6X",
"6X6X6X6X6Xn.m.6X6X6X6X6X6XE _ ~ } @.z 6X6X6X6X6X6X6X6X6X6X6X6X6X",
"6X6X6X6X6Xg.6X6X6X6X6X6X< *.~ ~ W >.i 6X6X6X6X6X6X6X6X6X6X6X6X6X",
"6X6X6X6X6X6X6X6X6X6X6X6X, ] *._ 2.~ 6X6X6X6X6X6X6X6X6X6X6X6X6X6X",
"6X6X6X6X6X6X6X6X6X6X6X6X6X$ 7 0 F 6 6X6X6X6X6X6X6X6X6X6X6X6X6X6X",
"6X6X6X6X6X6X6X6X6X6X6X6X6X6X6X.   X 6X6X6X6X6X6X6X6X6X6X6X6X6X6X",
"6X6X6X6X6X6X6X6X6X6X6X6X6X6X6X+ 6Xo 6X6X6X6X6X6X6X6X6X6X6X6X6X6X",
"6X6X6X6X6X6X6X6X6X6X6X6X6X= O 6X6X: 6X6X6X6X6X6X6X6X6X6X6X6X6X6X",
"6X6X6X6X6X6X6X6X6X6Xu J A # 6X6X6XL x 6X6X6X6X6X6X6X6X6X6X6X6X6X",
"6X6X6X6X6X6X6X6X6Xj 7.E 6X6X6X6X6XI O.[ B f 6X6X6X6X6X6X6X6X6X6X",
"6X6X6X6X6X6X6X6Xw 2.*.s 6X6X6X6X6X:._ ) 5.C 6X6X6X6X6X6X6X6X6X6X",
"6X6X6X6X6X6X6X6X*._ *.t 6X6X6X6X6Xc 2.O.9.p 6X6X6X6X6X6X6X6X6X6X",
"6X6X6X6X6X6X6X6XK 7.8.r 6X6X6X6X6X6X, g 6X6X6X6X6X6X6X6X6X6X6X6X",
"6X6X6X6X6X6X6X6Xe V f 6X6X6X6X6X6X6X6X6X6X6X6X6X6X6X6X6X6X6X6X6X",
"6X6X6X6X6X6X6X6X6X6X6X6X6X6X6X6X6X6X6X6X6X6X6X6X6X6X6X6X6X6X6X6X",
"6X6X6X6X6X6X6X6X6X6X6X6X6X6X6X6X6X6X6X6X6X6X6X6X6X6X6X6X6X6X6X6X"
};
