/* XPM */
static const char *aGF0Y2hlcnlfZXhpdA__[] = {
/* columns rows colors chars-per-pixel */
"32 32 226 2 ",
"   c #020001",
".  c #150001",
"X  c #10070C",
"o  c #1A1701",
"O  c #180F14",
"+  c #260A01",
"@  c #21141C",
"#  c #301619",
"$  c #00002D",
"%  c #020137",
"&  c #2A1E28",
"*  c #311A20",
"=  c #351739",
"-  c #2F212E",
";  c #30232E",
":  c #392023",
">  c #392937",
",  c #2C2433",
"<  c #422F2B",
"1  c #473738",
"2  c #000046",
"3  c #160055",
"4  c #2C0050",
"5  c #39005F",
"6  c #2F0545",
"7  c #3C2050",
"8  c #010065",
"9  c #190161",
"0  c #290061",
"q  c #380164",
"w  c #380176",
"e  c #3A1A63",
"r  c #410E59",
"t  c #412941",
"y  c #4B354C",
"u  c #4D3A4A",
"i  c #4A3745",
"p  c #52394E",
"a  c #523249",
"s  c #44285A",
"d  c #4D3757",
"f  c #553B56",
"g  c #42006D",
"h  c #441A67",
"j  c #440273",
"k  c #43007E",
"l  c #49017D",
"z  c #4D0B79",
"x  c #4C1D75",
"c  c #47187A",
"v  c #4D197B",
"b  c #481876",
"n  c #52187D",
"m  c #4C256D",
"M  c #482967",
"N  c #4C3569",
"B  c #523565",
"V  c #52326E",
"C  c #573A66",
"Z  c #4C2572",
"A  c #532A7A",
"S  c #553274",
"D  c #5A3C74",
"F  c #623D7C",
"G  c #53414F",
"H  c #4D4357",
"J  c #5C435C",
"K  c #574958",
"L  c #5B5457",
"P  c #624C5A",
"I  c #6A4F5E",
"U  c #61585B",
"Y  c #5D4366",
"T  c #5C446A",
"R  c #554B68",
"E  c #5D4677",
"W  c #634A6A",
"Q  c #664A69",
"!  c #645362",
"~  c #695969",
"^  c #6A4E73",
"/  c #674A79",
"(  c #704F7A",
")  c #6D527A",
"_  c #655476",
"`  c #705474",
"'  c #72567C",
"]  c #765C75",
"[  c #71586E",
"{  c #69617E",
"}  c #766677",
"|  c #6F696B",
" . c #827A78",
".. c #3E0089",
"X. c #4C008C",
"o. c #4E0882",
"O. c #54028C",
"+. c #530C8B",
"@. c #56088A",
"#. c #4E1981",
"$. c #521484",
"%. c #531B82",
"&. c #55118B",
"*. c #55178D",
"=. c #570A91",
"-. c #5B1692",
";. c #5C1E93",
":. c #561690",
">. c #620F9D",
",. c #611C93",
"<. c #532283",
"1. c #5B228D",
"2. c #5B2F8E",
"3. c #5D2392",
"4. c #5F2C92",
"5. c #5E2598",
"6. c #5D3780",
"7. c #612395",
"8. c #612A94",
"9. c #632899",
"0. c #643A82",
"q. c #674888",
"w. c #6D5484",
"e. c #735484",
"r. c #7A5A86",
"t. c #7C5E8C",
"y. c #785688",
"u. c #755A97",
"i. c #6E6580",
"p. c #7B628C",
"a. c #7B6B8B",
"s. c #73628C",
"d. c #7F728F",
"f. c #7E7587",
"g. c #7C6995",
"h. c #7D7297",
"j. c #805D93",
"k. c #84668D",
"l. c #837285",
"z. c #867C83",
"x. c #88788A",
"c. c #836495",
"v. c #896596",
"b. c #8A669A",
"n. c #8B699B",
"m. c #836C95",
"M. c #926D9E",
"N. c #8B7C93",
"B. c #87799B",
"V. c #967D90",
"C. c #937D8A",
"Z. c #8F6BA1",
"A. c #8F67A3",
"S. c #946CA4",
"D. c #996CA5",
"F. c #966DAA",
"G. c #996EAA",
"H. c #8D7DA4",
"J. c #8C79AA",
"K. c #9771AC",
"L. c #9B72AD",
"P. c #9E79AF",
"I. c #9971B0",
"U. c #8C74B0",
"Y. c #888187",
"T. c #92858F",
"R. c #8F8B9C",
"E. c #9D939D",
"W. c #968C95",
"Q. c #A2929D",
"!. c #9382AD",
"~. c #9885A3",
"^. c #9E91AF",
"/. c #9C8BBB",
"(. c #9483B7",
"). c #9F95B7",
"_. c #AB9CAD",
"`. c #A28FBC",
"'. c #A798BF",
"]. c #AAA2AC",
"[. c #ADA2B4",
"{. c #B6AAB7",
"}. c #C2B8BF",
"|. c #9F8DC1",
" X c #A18DC8",
".X c #A493C3",
"XX c #A694CB",
"oX c #A996CD",
"OX c #AC9ACB",
"+X c #AB99C4",
"@X c #B39DC1",
"#X c #AA96D1",
"$X c #AE9BD4",
"%X c #AF9BD9",
"&X c #B19ED6",
"*X c #B29ED9",
"=X c #B5A7C7",
"-X c #BEB3C3",
";X c #AEA1D4",
":X c #B3A1D6",
">X c #BCAAD2",
",X c #B4A1DA",
"<X c #B9A4DC",
"1X c #BBA9DC",
"2X c #BAA2D2",
"3X c #ADA1C5",
"4X c #BAA6E2",
"5X c #BEA9E1",
"6X c #C3B6C9",
"7X c #C7ACCF",
"8X c #C0ABE3",
"9X c #CAC1C6",
"0X c #D3C9D5",
"qX c #DED2DE",
"wX c #CFC7D4",
"eX c #E2D7DD",
"rX c #D8CCE4",
"tX c #E8DDE7",
"yX c #E9DEEB",
"uX c #E3D6E1",
"iX c #EDE3EB",
"pX c #EEE2F0",
"aX c #F9EEF7",
"sX c #F9ECF8",
"dX c #FEF4FF",
"fX c #FCF1F5",
/* pixels */
":X&X&X&X:X$X$X$X&X<X&X&X&X*X&X&X&X&X$X&X*X*X&X&X$X&X&X*X*X&X&X*X",
"&X*X&X&X$XoX$X&X:X&X*X&X&X&X*X&X#X1X<X$X&X$X*X*X&X&X&X$X$X&X&X$X",
"&X$X$X,X$X:X&X*X&X,X:X,X*X:X%X&X$X<X5X&X&X&X&X*X&X&X:X$XoX<X$X$X",
"&X$X$X$X&X&X:X&X&X1X<XXX$X&X:X,X:X*X*X|.$X&X:X&X&X&X&X&X&X&X$X:X",
"$X$X&X$X&X,X&X&X:X*X=X[.*X&XOX#XOX:X*X-X>X$X,X*X&X:X&X&X:X&X&X&X",
"*X&X,X<X&X&X&X<X:X XrX}.u.).a.g.t.m.w.eX[.(.OX$X$X:X&X$X$X<X,X$X",
"&X$X&X&X&X:X&X<XXX^.6XR.V [.y.e.( t.q.i.N.0X+X$X&X&X&X&X&X*X&X$X",
"&X#X$X&X*X&X&X:XXXqX6X2 N.7X/ Y ^ M.e.% 0XaX'.%X&X&X:X$X$X*X&X&X",
"&X&X:X&X&X&X&X,XXX0XdXW.4 ~.P.F.L.y.k R tXiX+X&X,X*X%X$X$X*X&X$X",
"$X;X:X$X:X&X:X*X#X=XiXY.k j t.n.v.F ;.g z.].>X*X:X*X$X$X<X:X&X$X",
",X&X&X&X:X*X&X$X<Xs.H h 1.<.W ^ ^ C $.7.k % !.&X$X&X&X&X$X&X*X&X",
"&X$XH.$X&X*X<X8XU.6 b ;.;.m ^ e.y.r.V -.8.s 0 s.<X,X:X#XB.;X*X:X",
":XOX{..X4X&XOXH.q n m 7.n T b.S.F.L.j.c 7.N m q J.#X<X+X6X+X&X:X",
"%X3XeX~.!.u.<.3 v h b ,.M v.K.F.M.A.L.E =.A Y d w 2.u.6XuX!.,X*X",
"&X@XaX].8 +.#.p.F B <.&.Q F.G.k.m N c.p.#.*.W ' T 1...B.9Xa.<X$X",
"$X=XtXq.>.A t.F.K.) +.x r.G.S.S -.+.B M.0.O.B ) ` s $.k K d.:X$X",
"&X>X{.8 v y k.F.S.D =.V n.L.n.Z %.v M Z.y.@.x ^ Y ~ ! ^ = N.4X$X",
"5X+XK } z.P ) I.p.v -.W S.F.F./ q e W D.b.%.-.C Y } ~ C.V.t .X,X",
"&Xf.I C.l.J y.L.T &.%.^ D.S.F.A.t.v.S.F.S.S ;.b W f p ! } . d.4X",
"H.P x.f Q G c.b.b 7.b ' G.S.D.G.F.G.F.S.G./ &.3.N W y p Q # _ &X",
"h.: ` ~ Q J m.D &.7.x r.F.F.S.F.F.F.F.S.G.e.+.7.$.B i i W + { <X",
"h.. [ ~ u f T $.3.;.Z t.F.S.G.b.^ r.F.S.F.e.o.3.3.%.h > K * R <X",
"!.o f a y Z &.1.3.3.h ) F.G.v.l.! > _ v.S.D &.3.1.3.9.+.$ + E.$X",
" Xf.}., 9 X.9.1.1.7.$.d M.A.} T.u u > ' ) v 7.1.3.;.w 6.x.wXqXXX",
"*X`.yXyX-XB.k :.3.;.5.j t.' Y.] Q ~ p p V -.1.3.3.%._.eXsXpX6X#X",
",X$X-X0XdXaX9X<.3.1.1.3.r E._.f K p p < h 3.;.4.X.a.fXdXwXY.=X%X",
"&X*X=X| ].yXiX_ O.1.7.:.s Q.y   O X & 1 7 3.1.1.O.E {.].~ } OX*X",
"$X<XOX| L l. .m ,.1.4.1.d J @ & & & @ > > j 7.8.4.%.H ~ U d.:X*X",
":X$X<X/.~ L N ;.8.3.O.5 d i , ; - ; , @ y _ c l O.O.j K B.$X&X&X",
"$X&X$X*X.Xg.S o.l z E g.B._       .   o /.:X.Xg.w.s.J..X,X:X$X:X",
"&X*X&X$X*X,X2X.X(./.&X<X<X$XB._ R H { .X<X*X,X<X,X,X<X*X&X&X$X*X",
"<X1X&X$X#X&X,X<X<X*X&X$X&X&X4X<X:X&X<X,X*X&X&X&X&X&X$X$X$X,X$X#X"
};
