/* XPM */
static const char *ZWdnc19waXhfZXhpdGNsb3Nl[] = {
/* columns rows colors chars-per-pixel */
"32 32 221 2 ",
"   c #030004",
".  c #0A0006",
"X  c #000805",
"o  c #04010C",
"O  c #0D000E",
"+  c #0C0012",
"@  c #0E001C",
"#  c #0F0E13",
"$  c #120213",
"%  c #13031C",
"&  c #180919",
"*  c #181118",
"=  c #0E2217",
"-  c #1B0525",
";  c #1E1122",
":  c #1E1929",
">  c #24052C",
",  c #270828",
"<  c #24122A",
"1  c #291827",
"2  c #301B2C",
"3  c #2E0432",
"4  c #340C34",
"5  c #3E0D3C",
"6  c #2F1834",
"7  c #2A1637",
"8  c #341A35",
"9  c #1B2326",
"0  c #382639",
"q  c #2B2B32",
"w  c #420D3B",
"e  c #3E1F48",
"r  c #3B2846",
"t  c #3F3043",
"y  c #3F2B50",
"u  c #4D1C46",
"i  c #452B48",
"p  c #422E55",
"a  c #473555",
"s  c #59385C",
"d  c #563C59",
"f  c #573D64",
"g  c #4E424E",
"h  c #514256",
"j  c #554A57",
"k  c #4E5251",
"l  c #59555C",
"z  c #49715B",
"x  c #446C54",
"c  c #5B496D",
"v  c #574768",
"b  c #5C5565",
"n  c #634A6C",
"m  c #655669",
"M  c #644E75",
"N  c #655576",
"B  c #64527A",
"V  c #6B5B78",
"C  c #705D7B",
"Z  c #5E6261",
"A  c #567966",
"S  c #65656C",
"D  c #6F6178",
"F  c #736778",
"G  c #6A7B73",
"H  c #5A8470",
"J  c #66937E",
"K  c #6D5A83",
"L  c #715C83",
"P  c #786886",
"I  c #7F6A91",
"U  c #7F6A9C",
"Y  c #825F89",
"T  c #84688C",
"R  c #82728C",
"E  c #836D9E",
"W  c #897797",
"Q  c #957DA6",
"!  c #6A9583",
"~  c #7A978C",
"^  c #7E9E93",
"/  c #7AB693",
"(  c #77B492",
")  c #77AB91",
"_  c #8E8193",
"`  c #898C9B",
"'  c #968B97",
"]  c #978895",
"[  c #83979E",
"{  c #84AD9B",
"}  c #83AC96",
"|  c #80B49E",
" . c #9881A5",
".. c #9A83AC",
"X. c #9989A8",
"o. c #9F92A2",
"O. c #9897A9",
"+. c #9B84B4",
"@. c #9E83BC",
"#. c #9E96B8",
"$. c #8C98A8",
"%. c #A597A9",
"&. c #AC9EAA",
"*. c #A597A7",
"=. c #A28DB7",
"-. c #A58CBC",
";. c #AB9BBC",
":. c #A795B9",
">. c #B19EBE",
",. c #8AA9A6",
"<. c #98A7AE",
"1. c #94AAAB",
"2. c #84B4A5",
"3. c #9AABB4",
"4. c #9DA6BA",
"5. c #97ADB7",
"6. c #8DB1B1",
"7. c #97B3B6",
"8. c #93B7AD",
"9. c #ACA6AD",
"0. c #A3A4BE",
"q. c #A3AAB9",
"w. c #AFA3B7",
"e. c #B5A9B4",
"r. c #B6A7B9",
"t. c #B9AABB",
"y. c #B1A3B5",
"u. c #A2BFBB",
"i. c #B8B5B0",
"p. c #C1B4BE",
"a. c #85C0A4",
"s. c #9E85C7",
"d. c #A48CC7",
"f. c #AA8FC6",
"g. c #A58CCC",
"h. c #AB8FCA",
"j. c #A487C7",
"k. c #AA92C2",
"l. c #AB9BC4",
"z. c #A693CD",
"x. c #AB93CC",
"c. c #AC9DCB",
"v. c #A691C2",
"b. c #B195CF",
"n. c #B39CCE",
"m. c #B69BC9",
"M. c #A68ED0",
"N. c #AD93D2",
"B. c #AE9DD4",
"V. c #AF98DE",
"C. c #A796D3",
"Z. c #B295D4",
"A. c #BD95D5",
"S. c #B49BD5",
"D. c #BA9AD6",
"F. c #B496D9",
"G. c #BB97DB",
"H. c #B49ADB",
"J. c #B99BDB",
"K. c #B08CCA",
"L. c #9DA8C3",
"P. c #A4A3C4",
"I. c #AAA2CD",
"U. c #A7A8C9",
"Y. c #B3A2CE",
"T. c #B9ABC6",
"R. c #BEB0CA",
"E. c #ACA3D3",
"W. c #B4A3D3",
"Q. c #BBA3D4",
"!. c #B4A2D9",
"~. c #BBA2DC",
"^. c #BAA9D6",
"/. c #BBB4D9",
"(. c #A7B3C9",
"). c #B89CE2",
"_. c #BCA3E3",
"`. c #BBA8E3",
"'. c #C29BDA",
"]. c #C1AEC2",
"[. c #C5BBC6",
"{. c #C5B7C9",
"}. c #C1A9DB",
"|. c #C1A7D7",
" X c #C8B5D4",
".X c #C1A5E6",
"XX c #C2A9E3",
"oX c #C4ABEA",
"OX c #C9AFEC",
"+X c #CAB6E6",
"@X c #CBAEF0",
"#X c #D0B8F0",
"$X c #CAC3CB",
"%X c #D6C9D6",
"&X c #DED1DB",
"*X c #E1D6DE",
"=X c #DCCCE1",
"-X c #DED2E2",
";X c #D3C2F4",
":X c #CCC0E6",
">X c #E1CEEA",
",X c #E2D4E5",
"<X c #E4D6EA",
"1X c #E7D9EA",
"2X c #EADDEB",
"3X c #E5D9E5",
"4X c #ECDEF1",
"5X c #F0DDF9",
"6X c #EDE2ED",
"7X c #E8E6E5",
"8X c #F0E3EE",
"9X c #EEE1F2",
"0X c #F2E3F3",
"qX c #F6E9F4",
"wX c #F4E5F9",
"eX c #F8E7FB",
"rX c #F6E9FA",
"tX c #FBECFD",
"yX c #FFF3FF",
"uX c #FFF9FF",
"iX c #FDF4F7",
/* pixels */
"S.@.b.S.H..XJ.N.H.H.H.J.J.H.Z.s.N.g.H.~.x.b.Q.x.S.H.g.F.~.N.S.S.",
"h.D.~.S._.H.g.#XZ.N.J._.g.j.H.H.N.oXH.x.XXQ.f.~.x.h._._.x.H.~.x.",
"J.Z.J.Z.N._._.g.~.~.x.x.`.J.g._.H.J.H.N.S.S.n.Z.#XF.N.N._.J.N._.",
"F.J.Z.F._.M.j.OXS.~.!.S.XX!.d.H.S.N.S.S.l.S.~.n.@.~.~.Z.N.H.J.H.",
"H.N.J.J.N.~.XX+.c.E E U U v.!.S.x.`.S.l.^.n.-.^.Q.~.x.XXZ.j.@XN.",
").H.F.S.x.n.+.a p P ..I K B K ^.Y.Q P B v c C I =.}.k.S.XXh.F.J.",
"g.@Xx.S.}.c p >.>XtXwX<XtX:.7 a y 7 D  XR.T.;.P 7 Q +Xk.x.~.h.Z.",
"_.x.~.n.M n  XyXtX,XwX2Xy.F h P P v P {.9XrXrX2XX.r  . X-.}.D.J.",
"H.x.n.:.@  XtX0X1XrX2X] $ _ 2X3X4X<Xo.; j uX%XwX4XC a |.m.n.S.Z.",
"S.}.Q.L C eX0X8X6XqX' . p.qX*X2X2XrXqX*.g S uX3X0X%.<  .Q.}.h.J.",
"d.S.k.y  XyX3X2X2X_ < t.uX&XyX6X6X-X9XyXe.O ,X0X0X1X0 W n.S.d..X",
"S.n.+.c 5X0X0X0X,Xb o.yX%XyX%X6XwXwX9X2XyXm &.6X2X0Xm I l.x.).H.",
"W.XX..W wX,XwX1X%X0 =X<XuX6X[.' ,XwX0X,XrX&.F qX2X-XR N Y.S.oXM.",
"-.#X..X.wX2X0X1X%.%.9X0X,X2X2X. o.0X<XwXtX&.1 &XqX2XR N ^.N.H.V.",
"v.+Xm.X.tX4X1XtXr.r.<XtX,XuXp.' t 2X9X1XtX[.* e.qX2Xh R Y.B.M._.",
"Q.l. XW <X{.[.tXe.].yX,XrX%XuXo.o D T.,XrX{.0 *X8X$Xo X.l.`.N.V.",
";Xc.;.v _ o [.6X9.[.6X0X2X,XeX{.O b {.4XwXo.j *X7XZ 9 ` /.#._.F.",
";X+X^.c @ % D wX' t.,Xt.wXwXyX%.. $XyX9X<X; *.yX9.X S q.O./.x.Z.",
"..:X+XL @ i > T s n T d =X<XtX'   i.7X2Xy.+ T.w.o o b q.0.l.c.~.",
"l.=.M - - e > - > % > -  XtX<Xl * i.iX9.; $ < - % a : V T.l.^.-.",
"Q.m...V n + < r 6 8 7 > f Q Y > O ] ].2 O i O 0 < % + % f =.D.A.",
"D.f.-.l.:.F : o * * < 6 % 3 3 4 , s d + 0 1 2 1 0 h P N B +.b..X",
"H.!.E.P.$.3.~ A = X # 1 i u w u 5 3 4 8 2 . 1   j O.#.U.+X!._.C.",
").C.C.L.(.[ u.^ ^ ~ G   * $ < , % < ; :   l k q S O.0.P.c.z.H.H.",
").J.F.S.I.P.4.5.1.,.^ ! H A z x z A H J ! ~ 1.,.4.P.c.S.S.G.A.A.",
"G.G.F.S.B.I.U.P.L.5.6.2.| / ( ( / / / a.2.,.7.4.P.c.B.F.J.G.A.A.",
"H.H.H.H.S.B.B.E.E.U.L.5.6.,.{ { } } { 8.7.3.U.I.B.B.H.H.H.H.S.S.",
"B.H.H.H.H.H.H.S.B.B.I.P.0.4.3.3.1.<.<.q.0.P.n.Z.F.G.H.H.H.H.H.H.",
"S.S.F.S.S.S.D.S.S.S.S.S.W.W.W.W.Y.^.^.c.n.Q.D.A.A.A.G.G.H.H.H.H.",
"S.S.S.S.S.S.D.D.J.F.F.F.F.Z.b.x.N.S.J.N.Z.J.A.'.'.D.J.S.F.F.J.J.",
"B.S.S.S.S.S.S.J.F.F.F.F.S.S.S.S.J.D.J.S.S.N.x.oX!.S.S.S.B.S.F.J.",
"B.B.B.B.S.S.F.J.J.J.J.S.S.S.S.S.D.K.Z.F.H.z.z.;X!.E.E.E.B.S.S.D."
};
