/* XPM */
static const char *Z3Jhc3NfcGl4[] = {
/* columns rows colors chars-per-pixel */
"32 32 113 2 ",
"   c #75B06C",
".  c #78B56F",
"X  c #7EBB75",
"o  c #7FBE77",
"O  c #83C07A",
"+  c #83C27B",
"@  c #84C47A",
"#  c #85C57B",
"$  c #85C27C",
"%  c #84C37C",
"&  c #85C47D",
"*  c #87C47E",
"=  c #86C57E",
"-  c #88C87E",
";  c #89C97F",
":  c #89C480",
">  c #89C680",
",  c #88C780",
"<  c #89C681",
"1  c #8CC783",
"2  c #89C881",
"3  c #8BCB81",
"4  c #8BC882",
"5  c #8AC982",
"6  c #8BCA83",
"7  c #8CC983",
"8  c #8CCC82",
"9  c #8DCD83",
"0  c #8CCB84",
"q  c #8ECB85",
"w  c #8FCA86",
"e  c #8DCC85",
"r  c #8ECE84",
"t  c #8FCF85",
"y  c #8ECD86",
"u  c #8FCE87",
"i  c #90CD87",
"p  c #91CC88",
"a  c #91CE88",
"s  c #90CF88",
"d  c #92CF89",
"f  c #93CE8A",
"g  c #90D086",
"h  c #91D187",
"j  c #91D089",
"k  c #92D288",
"l  c #93D389",
"z  c #93D08A",
"x  c #92D18A",
"c  c #93D28B",
"v  c #94D18B",
"b  c #92D588",
"n  c #94D48A",
"m  c #95D58B",
"M  c #94D78A",
"N  c #95D08C",
"B  c #96D18D",
"V  c #95D28C",
"C  c #94D38C",
"Z  c #96D38D",
"A  c #97D28E",
"S  c #95D48D",
"D  c #96D68C",
"F  c #97D78D",
"G  c #97D48E",
"H  c #96D58E",
"J  c #97D68F",
"K  c #98D38F",
"L  c #98D58F",
"P  c #95D88B",
"I  c #96D98C",
"U  c #97DA8D",
"Y  c #98D88E",
"T  c #99D98F",
"R  c #99D490",
"E  c #98D590",
"W  c #9AD591",
"Q  c #99D690",
"!  c #98D790",
"~  c #9AD791",
"^  c #9BD692",
"/  c #9AD792",
"(  c #99D891",
")  c #9ADA90",
"_  c #9BDB91",
"`  c #9BD892",
"'  c #9AD992",
"]  c #9BDA93",
"[  c #9CD993",
"{  c #9DDD93",
"}  c #9CD994",
"|  c #9DDA94",
" . c #9CDB94",
".. c #9FDA96",
"X. c #9DDC95",
"o. c #9EDD96",
"O. c #9FDE97",
"+. c #A0DF98",
"@. c #A2DF9A",
"#. c #A3E09A",
"$. c #A2E19A",
"%. c #A3E29B",
"&. c #A5E09C",
"*. c #A6E19D",
"=. c #A5E29C",
"-. c #A4E39C",
";. c #A5E49D",
":. c #A6E59E",
">. c #A7E69F",
",. c #A8E7A0",
"<. c #ADEAA4",
"1. c #B6F1AD",
"2. c #BFFCB6",
/* pixels */
"c C S ! ! ! S S S S ! ! ! ! S S C S S S S S S S o = c ' S 2 O $ ",
"S S S S S S S C S S S ! ! ! ' ! S S S S S ! S S 0 2 y c c s C ' ",
"S S S ! ' ! ! ! S S S S ! ! ' ' ' C s s C S S c c 2 = = > 0 S O.",
"c C S S ! ! ' ' S S S S ! ' ' ' 0 > > y ' ;.,.;.' S c c C S S ! ",
"! S S S S S S S S S S ! ! ' ' ' ,.%.' ' O.O.' S ' ' ' '  .' S c ",
";.;.%.O. .' ' ! ' ' ' ' ' ! ! !  .! S !  .O. .! c S S S S ! S c ",
",.;.%.+.O. . . .' ' ' ' ' ! S S ' ! S S S c y 0 c !  .' ' O.O.O.",
"! S S S S S S !  . .' ' ! S S S S S ' ' ' S C c > c ! S c S S S ",
"! ! ! ' ' ' ' ' %.-.%.' S ! ' ! S S ! ! ! S ! ' ! ! ! ! ! ! ! ! ",
"S S S ! ' ' ' ' ' ' ' S S C c s 2 y c S ! ! ' ' ! ! ! ! ! ! ! ! ",
"S S S S ! L ! ! S S S ! S s 2 = = 2 c S ' ' ' ! ! ! ! ! ! ! ! ! ",
"! ! S S S S S S ! C S ' ' S y y c C ! ' ' ! S S ! ! ! ! ! ! ! ! ",
"! ! ! ! ! S S S S C S ' ' ' '  .' ' ' ' S S S ! ! ! ! ! ! ! ! ! ",
"' ! ! ! ! S S S ' ' ' S c S ' ' ! ! S S C S ! ' ! ! ! ! ! ! ' ! ",
"! ! S S S S S S c O.O.s 2 s S c S S S S S S ! ' ! ! ! ! ! ! ! ! ",
"L S S S C S C C O c ! 0 > C  .! S ! ' ' ' S S S ! ! ! ! ! ! ! ! ",
"C ! ! ! ! ! ! ! p  .-.+.1 >  .C y 2 ; ; ; 8 c S S S S L Y Y S S ",
"K ! ! ! ! C f s s s -.1.C   > ! c c g y g c Y Y S S S L Y Y S I ",
"! L ! ! L s > O v i %.2.%.. $ [ S S S S S S Y ' S S S I Y Y Y I ",
"! L L ! ! f * X s s L <.-.s C C S S S S S S S S S S S I Y Y I I ",
"L S S ! ` C 7 O s i 2 C ! L  .s m m S S S m m b Y Y Y I S S I Y ",
"L S S ! ` L c 0 L v 2 S L s ! ! S S I S I I S m Y Y Y I S S S I ",
"! ! ! L L L L L ! ! c [  .s ! [ Y I S S S Y Y Y Y Y S S S S Y I ",
"! ! ! S C S !  .i ! s S [ ! ' s Y S S m S Y Y Y Y L L S S S Y Y ",
"L L L L S S S L m ' { { S m S ' Y Y I S S S S S S S S S Y Y Y Y ",
"L L L L S S S S Y S m m m Y ' ' Y Y S S S I S S S S Y L S S Y Y ",
"S S S S S S S I m 8 # # y m S S S S S S Y I Y Y Y Y Y Y S S S S ",
"I S S S S S S I m 8 # # 8 m m b S S S S Y Y Y Y Y Y Y Y S S S S ",
"I I S S S S Y Y Y S c c m S Y Y S S I S S S Y Y Y I S S S S m m ",
"I I S L S S Y Y Y Y ' ' Y S S S Y I Y Y S S Y I Y I S S S m m m ",
"P P P P P P P P m m P P m b b b Y Y Y Y S S S S Y Y S S m m m b ",
"P P P P P P P P I I m m I I I P Y Y Y Y S S S S Y Y S S m m b b "
};
