/* XPM */
static const char *emVyZ19wbGF5ZXIxcm90X3BpeCtjb3B5[] = {
/* columns rows colors chars-per-pixel */
"32 32 149 2 ",
"   c #000000",
".  c #000C01",
"X  c #09040D",
"o  c #050A0E",
"O  c #0E0C0B",
"+  c #001200",
"@  c #001209",
"#  c #0C1B0D",
"$  c #0D0C15",
"%  c #110614",
"&  c #110C13",
"*  c #1A0D1B",
"=  c #101012",
"-  c #1A131A",
";  c #191C1B",
":  c #1B1020",
">  c #240722",
",  c #200B22",
"<  c #320029",
"1  c #241225",
"2  c #2A1627",
"3  c #241B25",
"4  c #271228",
"5  c #2A162A",
"6  c #2B1C2C",
"7  c #30192F",
"8  c #331C34",
"9  c #391A37",
"0  c #391E3A",
"q  c #2B202C",
"w  c #2F2230",
"e  c #322532",
"r  c #352836",
"t  c #352538",
"y  c #3D223D",
"u  c #372938",
"i  c #3B2B3C",
"p  c #3F2041",
"a  c #3F2C40",
"s  c #431F42",
"d  c #5C0C57",
"f  c #581552",
"g  c #571C52",
"h  c #65175E",
"j  c #432242",
"k  c #422C43",
"l  c #472548",
"z  c #49264B",
"x  c #4D294C",
"c  c #4C304A",
"v  c #532B53",
"b  c #572E5B",
"n  c #5A2E5B",
"m  c #5B325B",
"M  c #60325F",
"N  c #5B2D61",
"B  c #612F64",
"V  c #633464",
"C  c #663867",
"Z  c #653469",
"A  c #6B366D",
"S  c #6D3A6C",
"D  c #70386F",
"F  c #733B72",
"G  c #783C77",
"H  c #7A3F7A",
"J  c #424D50",
"K  c #5F415F",
"L  c #455052",
"P  c #4A5255",
"I  c #605B69",
"U  c #754075",
"Y  c #7C4E7C",
"T  c #7A507B",
"R  c #5A6367",
"E  c #6A6A76",
"W  c #6C6D79",
"Q  c #7F4080",
"!  c #777485",
"~  c #854484",
"^  c #884787",
"/  c #8A478B",
"(  c #8E4B8E",
")  c #904F8F",
"_  c #8E5B8E",
"`  c #934B93",
"'  c #984E97",
"]  c #9D4F9B",
"[  c #985096",
"{  c #9D519C",
"}  c #A455A3",
"|  c #A854A7",
" . c #AC56AB",
".. c #AC59AC",
"X. c #B159AF",
"o. c #B45BB3",
"O. c #B95EB7",
"+. c #BC5FBA",
"@. c #A165A1",
"#. c #B16FB0",
"$. c #BD61BB",
"%. c #B270B2",
"&. c #C061BE",
"*. c #C463C3",
"=. c #C964C7",
"-. c #CB65C9",
";. c #CE68CC",
":. c #D067CE",
">. c #D168CF",
",. c #CB7DCA",
"<. c #D46AD2",
"1. c #D96DD7",
"2. c #D170D0",
"3. c #D877D7",
"4. c #E47EE3",
"5. c #848193",
"6. c #9195A6",
"7. c #9699AB",
"8. c #9B9AAE",
"9. c #A3A0B7",
"0. c #A4A5BB",
"q. c #AEADC7",
"w. c #AFAFC9",
"e. c #B1AFC8",
"r. c #AFB0C9",
"t. c #B1B0C9",
"y. c #B1B0CA",
"u. c #B3B3CD",
"i. c #B3B2CD",
"p. c #B5B4CE",
"a. c #B6B5D0",
"s. c #B9B7D2",
"d. c #BABAD6",
"f. c #B8B8D3",
"g. c #BDBDD9",
"h. c #D785D6",
"j. c #E780E6",
"k. c #EB85EA",
"l. c #E490E4",
"z. c #F28FF0",
"x. c #F393F2",
"c. c #F994F7",
"v. c #FB96F9",
"b. c #FF9EFF",
"n. c #FFA1FF",
"m. c #C4C4E1",
"M. c #C8C7E5",
"N. c None",
"B. c black",
/* pixels */
"N.N.N.N.N.N.N.N.N.N.N.N.N.N.N.N.N.N.N.N.N.N.N.N.N.N.N.N.N.N.N.N.",
"N.N.N.N.N.N.y.N.N.N.N.N.N.N.N.N.N.N.N.N.N.N.N.N.N.N.N.N.N.N.N.N.",
"N.N.N.N.y.y.m.y.N.N.N.N.e.N.N.N.N.N.N.N.N.N.N.N.N.N.N.N.N.N.N.N.",
"N.N.y.y.g.y.y.d.y.y.w.p.M.8.N.o               4 N.N.N.N.N.N.N.N.",
"y.y.g.y.y.u.w.y.d.f.a.9.I .   O v S H H F n 1     1 N.N.N.N.N.N.",
"d.r.p.E J q.u.w.w.p.5.    n { $.-.;.<.>.;.;.*.} n   % N.N.N.N.N.",
"w.u.0.y h L e.u.u.!   3 } ;.<.;.-.-.-.-.-.-.;.>.;.`   X N.N.N.N.",
"u.a.6.g 2.d R p.W   t $.<.-.=.-.-.-.-.-.-.-.-.=.-.1...  % N.N.N.",
"8.s.7.f <.*.9 P   . o.<.=.-.-.-.-.-.-.-.-.-.-.-.;.X.O.[   1 N.N.",
"< P W > o.1...    ^ <.=.-.-.-.-.-.-.-.-.-.-.-.=.>.F   =.V   N.N.",
")  .<   Z *.-.l   Q ;.;.;.;.-.-.-.-.-.-.-.-.-.=.>.'   +.o.  , N.",
"n <.=.S   ` *.*   ( <. .m *.;.-.-.-.-.-.-.-.-.-.;.*...=.;.M   N.",
"  o.1.-.S   } 5   } 1.(   ] >.=.-.-.-.-.-.-.-.-.-.;.>.-.>.'   N.",
"  C +.:.;.z 8 5 :  .<.o.  ] >.=.-.-.-.-.-.-.-.-.-.-.=.=.<.&.  N.",
"N.  v ( *.$.    8 o.;.;.+.=.;.-.-.-.-.-.-.-.-.=.-.-.-.;.O.O.V N.",
"N.X 5 n B  .`   0  .;.=.;.;.-.-.-.-.-.-.-.-.;.>.;.=.-.;.v 6 m   ",
"N.N.  8 V N ^ 2 5  .:.=.=.-.-.-.;.-.-.-.-.;.| F o.>.<.o.  N.  % ",
"N.N.N.  5 V V 1 $ | ;.;.;.=.-.;.*.;.;.=.;.=.y     ` >.F N.N.N.N.",
"N.N.N.N.  % v 0   | O.V *.<.<.`   ~ =.;.<.}   k     m 1 N.N.N.N.",
"N.N.N.N.N.        ` <.v & ] `   6   z o.=.j ; e   N.N.N.N.N.N.N.",
"N.N.N.N.  y b { [ ^ <.X.  +   w i k + = 0 . i 3   N.N.N.N.N.N.N.",
"N.N.N.  * V Z *.>.*.-.;.F # u e i r i e 3 i u -   N.N.N.N.N.N.N.",
"N.N.N.  p Z A *.-.;.-.;.$.. 6 -   k a k i u r X N.N.N.N.N.N.N.N.",
"N.N.N.  z Z A *.;.-.-.=.<.^ ( *.C   + + r u q   N.N.N.N.N.N.N.N.",
"N.N.N.  x Z Z &.;.-.-.-.>.X.Y j.*.U { ^   i &   N.N.N.N.N.N.N.N.",
"N.N.N.  v A b o.:.-.-.-.;.*.c x.k.-.4.x.Y   0 (   N.N.N.N.N.N.N.",
"N.N.N.  v A n ` ;.-.-.=.=.;.s h.b.3.v.n.@.  [ -.@ N.N.N.N.N.N.N.",
"N.N.N.  z b b ~ ;.-.;.>.:.1.A #.b.z.c.b.T D 1.;.m N.N.N.N.N.N.N.",
"N.N.N.  v v   ' ;.;.&.{ ]  .G K b.b.n.l.. v o.>.~ N.N.N.N.N.N.N.",
"N.N.N.N.8 l   o.1.-.m       5   _ ,.%.r   N.  x 7 N.N.N.N.N.N.N.",
"N.N.N.N.N.N.  F / n   N.N.N.N.N.      N.N.N.N.N.N.N.N.N.N.N.N.N.",
"N.N.N.N.N.N.N.N.N.N.N.N.N.N.N.N.N.N.N.N.N.N.N.N.N.N.N.N.N.N.N.N."
};
