/* XPM */
static const char *emVyZ19wbGF5ZXIyX3BpeA__[] = {
/* columns rows colors chars-per-pixel */
"32 32 161 2 ",
"   c #000000",
".  c #000C00",
"X  c #00030A",
"o  c #000A09",
"O  c #0B0C0D",
"+  c #0E0612",
"@  c #0E0A12",
"#  c #110312",
"$  c #110911",
"%  c #1B071C",
"&  c #170B19",
"*  c #1B0D1B",
"=  c #111212",
"-  c #171519",
";  c #1A111C",
":  c #1F0F22",
">  c #1F1A20",
",  c #241326",
"<  c #251A26",
"1  c #261629",
"2  c #2A162E",
"3  c #261B2A",
"4  c #2A1C2D",
"5  c #2E1E30",
"6  c #331734",
"7  c #311C32",
"8  c #371F3C",
"9  c #3B1E3D",
"0  c #013A23",
"q  c #2F2433",
"w  c #332333",
"e  c #352936",
"r  c #372738",
"t  c #3A233D",
"y  c #3F2D3F",
"u  c #40283E",
"i  c #3F2341",
"p  c #432444",
"a  c #48254A",
"s  c #472948",
"d  c #4B294C",
"f  c #463146",
"g  c #4F2A53",
"h  c #522C54",
"j  c #572F59",
"k  c #592E5C",
"l  c #5C335C",
"z  c #60325F",
"x  c #5D2F60",
"c  c #5F3162",
"v  c #633465",
"b  c #643865",
"n  c #66356A",
"m  c #69366D",
"M  c #6B3A6B",
"N  c #6F3A72",
"B  c #753D75",
"V  c #773C78",
"C  c #793F78",
"Z  c #794277",
"A  c #7C427B",
"S  c #7C4B7D",
"D  c #81447F",
"F  c #834483",
"G  c #874986",
"H  c #864388",
"J  c #894688",
"K  c #8B498B",
"L  c #855885",
"P  c #934D92",
"I  c #9A4E99",
"U  c #975297",
"Y  c #915D91",
"T  c #975098",
"R  c #9D539B",
"E  c #A0529F",
"W  c #976197",
"Q  c #A355A2",
"!  c #A75CA6",
"~  c #A956A9",
"^  c #AD58AC",
"/  c #AD5BB0",
"(  c #B45DB3",
")  c #B95EB7",
"_  c #BB5EBA",
"`  c #A165A1",
"'  c #B760B6",
"]  c #B16FB0",
"[  c #BC61BA",
"{  c #B672B6",
"}  c #C163BF",
"|  c #C16ABF",
" . c #C464C3",
".. c #C964C7",
"X. c #C769C7",
"o. c #CA65C9",
"O. c #CB65C9",
"+. c #CA64C8",
"@. c #CB67CA",
"#. c #C965C8",
"$. c #CC65CA",
"%. c #CD65CB",
"&. c #CD65CA",
"*. c #CE65CB",
"=. c #CD66CB",
"-. c #CC67CB",
";. c #CD67CC",
":. c #CE66CC",
">. c #CE67CC",
",. c #CF66CD",
"<. c #CF67CD",
"1. c #CE66CD",
"2. c #CC66CB",
"3. c #CD68CC",
"4. c #CE68CD",
"5. c #CF68CD",
"6. c #CE68CC",
"7. c #CF68CE",
"8. c #CC69CB",
"9. c #D167CF",
"0. c #D067CE",
"q. c #D167CF",
"w. c #D068CD",
"e. c #D068CE",
"r. c #D069CE",
"t. c #D168CF",
"y. c #D169CF",
"u. c #D269CF",
"i. c #D16ACF",
"p. c #C379C3",
"a. c #D369D1",
"s. c #D36AD1",
"d. c #D36BD2",
"f. c #D469D2",
"g. c #D56AD3",
"h. c #D46BD2",
"j. c #D06DD0",
"k. c #D36DD3",
"l. c #D46CD3",
"z. c #D66AD4",
"x. c #D66BD4",
"c. c #D66CD4",
"v. c #D46AD2",
"b. c #D86FD7",
"n. c #D86DD8",
"m. c #DD6FDA",
"M. c #DA6EDB",
"N. c #DE7BDC",
"B. c #D081CF",
"V. c #E28AE0",
"C. c #EC88EB",
"Z. c #F08AEF",
"A. c #E991E7",
"S. c #F18CF0",
"D. c #F491F3",
"F. c #F994F7",
"G. c #FB97FA",
"H. c #FE9DFE",
"J. c #FFA0FF",
"K. c None",
"L. c black",
/* pixels */
"K.K.K.K.K.K.K.K.K.K.K.K.K.K.K.K.K.K.K.K.K.K.K.K.K.K.K.K.K.K.K.K.",
"K.K.K.K.K.K.K.K.K.K.K.K.K.K.K.K.K.K.K.K.K.K.K.K.K.K.K.K.K.K.K.K.",
"K.K.K.K.K.K.K.K.K.K.K.K.K.K.K.K.K.K.K.K.K.K.K.K.K.K.K.K.K.K.K.K.",
"K.K.K.K.K.K.K.K.K.K.K.K.K.K.K.K.K.K.K.K.K.K.K.K.  K.K.K.K.K.K.K.",
"K.K.K.K.K.K.K.K.K.K.K.K.K.K.K.K.K.K.K.K.K.K.K.- Z @ K.K.K.K.K.K.",
"K.K.K.K.K.K.K.K.K.5 O               4 K.K.K.K.v j.j K.K.K.K.K.K.",
"K.K.K.K.K.K.K.,     . d M C A B z 7     ; K.  ^ M.K   K.K.K.K.K.",
"K.K.K.K.K.K.    l R [ #.7.7.e.e.-. .^ B     < [ j.B   K.K.K.K.K.",
"K.K.K.K.q   ; Q -.e.:.-.#.#.#.#.-.-.9.e.( d   p U h   K.K.K.K.0 ",
"K.K.K.K.  7 [ a.#...#.#.#.-.-.-.#.#.....e. .h     p . K.K.  O J ",
"K.K.K.X   [ z...#.#.#.#.#.#.-.-.-.#.#.#...:. .p   $ K.K.  M [ a.",
"K.K.2   R ( ~ :.#.#.#.#.#.#.#.-.-.#.#.#.:.#.#.v   # 3   K 7.h.) ",
"K.K.  h  .o j 7.#.#.#.#.#.#.#.#.#.#.#.#.( #.#.V   %   K c.:. .M ",
"K.K.  R ..  B e.#.#.#.-.#.#.#.#.#...e.Q   Q z.R @   D h._ I k   ",
"K.X O [ 9.E ) :.#.#.-.-.-.-.#.-.#...e.G   T h.( 8   I I c h   K.",
"K.  v 7.#.9.:.#.#.#.-.-.-.-.-.-.#...e.Q t [ 9._ h   i c j ,   K.",
"K.  G e.....#.#.#.#.#.#.#.#.-.-.-.-.#.-...-.-. .v   a h     K.K.",
"K.  Q l.#.#.#.#.#.#.#.#.#.#.#.-.#.-.#.#.#.#.-. .m         + K.K.",
"K.  R b ( :.....:.e.:.#.#.-.-.#...#.#.#.#...9.#.N   h v 7   K.K.",
"K.& 5   M 7...a.( M E e...-...-.e.7.#...#.7.[ ..V   P F k ,   K.",
"K.  K.K.  ^ m.Q .   . } -...:. .A A #.9.a.P l 7.V   / B v 9   K.",
"K.K.K.K.K.h U   K.6   A e.9.} h     D ' D   ( a.j D  .x n 9   K.",
"K.K.K.K.K.K.  K.K.  *   R ( 8   f r       F e.#.P  .~ h m 2   K.",
"K.K.K.K.K.K.K.K.2 S   <   . . e r   F G w  .-.#.-.:.F x v * K.K.",
"K.K.K.K.K.K.K.K.B X.1 > y = 4 d   P b.! F a...#.:._ x n k   K.K.",
"K.K.K.K.K.K.K.  ( z.F   w u |  .! 8.S.L I a...#.#.H k m g   K.K.",
"K.K.K.K.K.K.K.M #.9. .t   ` H.C.7.Z.G.f _ :...:.) x v k i   K.K.",
"K.K.K.K.K.K.  [ M.( F M   ] H.G.N.H.V.4 } -...:.^ t p h : K.K.K.",
"K.K.K.K.K.K.7 R P 1   p   Y H.F.D.H.p.  i R h.9.^   d j   K.K.K.",
"K.K.K.K.K.K.K.K.  K.K.K.  w A.J.H.H.S     d [ #.R   6 + K.K.K.K.",
"K.K.K.K.K.K.K.K.K.K.K.K.K.  y { B.W   K.K.  o i ; K.K.K.K.K.K.K.",
"K.K.K.K.K.K.K.K.K.K.K.K.K.K.        K.K.K.K.K.K.K.K.K.K.K.K.K.K."
};
