/* XPM */
static const char *emVyZ19wbGF5ZXIycm90X3BpeA__[] = {
/* columns rows colors chars-per-pixel */
"32 32 161 2 ",
"   c #000000",
".  c #000C00",
"X  c #00030A",
"o  c #000A09",
"O  c #0B0C0D",
"+  c #0E0612",
"@  c #0E0A12",
"#  c #110312",
"$  c #110911",
"%  c #1B071C",
"&  c #170B19",
"*  c #1B0D1B",
"=  c #111212",
"-  c #171519",
";  c #1A111C",
":  c #1F0F22",
">  c #1F1A20",
",  c #241326",
"<  c #251A26",
"1  c #261629",
"2  c #2A162E",
"3  c #261B2A",
"4  c #2A1C2D",
"5  c #2E1E30",
"6  c #331734",
"7  c #311C32",
"8  c #371F3C",
"9  c #3B1E3D",
"0  c #013A23",
"q  c #2F2433",
"w  c #332333",
"e  c #352936",
"r  c #372738",
"t  c #3A233D",
"y  c #3F2D3F",
"u  c #40283E",
"i  c #3F2341",
"p  c #432444",
"a  c #48254A",
"s  c #472948",
"d  c #4B294C",
"f  c #463146",
"g  c #4F2A53",
"h  c #522C54",
"j  c #572F59",
"k  c #592E5C",
"l  c #5C335C",
"z  c #60325F",
"x  c #5D2F60",
"c  c #5F3162",
"v  c #633465",
"b  c #643865",
"n  c #66356A",
"m  c #69366D",
"M  c #6B3A6B",
"N  c #6F3A72",
"B  c #753D75",
"V  c #773C78",
"C  c #793F78",
"Z  c #794277",
"A  c #7C427B",
"S  c #7C4B7D",
"D  c #81447F",
"F  c #834483",
"G  c #874986",
"H  c #864388",
"J  c #894688",
"K  c #8B498B",
"L  c #855885",
"P  c #934D92",
"I  c #9A4E99",
"U  c #975297",
"Y  c #915D91",
"T  c #975098",
"R  c #9D539B",
"E  c #A0529F",
"W  c #976197",
"Q  c #A355A2",
"!  c #A75CA6",
"~  c #A956A9",
"^  c #AD58AC",
"/  c #AD5BB0",
"(  c #B45DB3",
")  c #B95EB7",
"_  c #BB5EBA",
"`  c #A165A1",
"'  c #B760B6",
"]  c #B16FB0",
"[  c #BC61BA",
"{  c #B672B6",
"}  c #C163BF",
"|  c #C16ABF",
" . c #C464C3",
".. c #C964C7",
"X. c #C769C7",
"o. c #CA65C9",
"O. c #CB65C9",
"+. c #CA64C8",
"@. c #CB67CA",
"#. c #C965C8",
"$. c #CC65CA",
"%. c #CD65CB",
"&. c #CD65CA",
"*. c #CE65CB",
"=. c #CD66CB",
"-. c #CC67CB",
";. c #CD67CC",
":. c #CE66CC",
">. c #CE67CC",
",. c #CF66CD",
"<. c #CF67CD",
"1. c #CE66CD",
"2. c #CC66CB",
"3. c #CD68CC",
"4. c #CE68CD",
"5. c #CF68CD",
"6. c #CE68CC",
"7. c #CF68CE",
"8. c #CC69CB",
"9. c #D167CF",
"0. c #D067CE",
"q. c #D167CF",
"w. c #D068CD",
"e. c #D068CE",
"r. c #D069CE",
"t. c #D168CF",
"y. c #D169CF",
"u. c #D269CF",
"i. c #D16ACF",
"p. c #C379C3",
"a. c #D369D1",
"s. c #D36AD1",
"d. c #D36BD2",
"f. c #D469D2",
"g. c #D56AD3",
"h. c #D46BD2",
"j. c #D06DD0",
"k. c #D36DD3",
"l. c #D46CD3",
"z. c #D66AD4",
"x. c #D66BD4",
"c. c #D66CD4",
"v. c #D46AD2",
"b. c #D86FD7",
"n. c #D86DD8",
"m. c #DD6FDA",
"M. c #DA6EDB",
"N. c #DE7BDC",
"B. c #D081CF",
"V. c #E28AE0",
"C. c #EC88EB",
"Z. c #F08AEF",
"A. c #E991E7",
"S. c #F18CF0",
"D. c #F491F3",
"F. c #F994F7",
"G. c #FB97FA",
"H. c #FE9DFE",
"J. c #FFA0FF",
"K. c None",
"L. c black",
/* pixels */
"K.K.K.K.K.K.K.K.K.K.K.K.K.K.K.K.K.K.K.K.K.K.K.K.K.K.K.K.K.K.K.K.",
"K.K.K.K.K.K.K.K.K.K.K.K.K.K.K.K.K.K.K.K.K.K.K.K.K.K.K.K.K.K.K.K.",
"K.K.K.K.K.K.K.K.K.K.K.K.K.K.K.K.K.K.K.K.K.K.K.K.K.K.K.K.K.K.K.K.",
"K.K.K.K.K.K.K.  K.K.K.K.K.K.K.K.K.K.K.K.K.K.K.K.K.K.K.K.K.K.K.K.",
"K.K.K.K.K.K.@ Z - K.K.K.K.K.K.K.K.K.K.K.K.K.K.K.K.K.K.K.K.K.K.K.",
"K.K.K.K.K.K.j k.v K.K.K.K.4               O 5 K.K.K.K.K.K.K.K.K.",
"K.K.K.K.K.  K n.~   K.;     7 z B A C M d .     , K.K.K.K.K.K.K.",
"K.K.K.K.K.  B k.[ <     B ^  .=.t.t.4.4.#.[ R l     K.K.K.K.K.K.",
"0 K.K.K.K.  h U p   s ( t.0.=.#.#.#.#.#.=.,.t.=.Q ;   q K.K.K.K.",
"J O   K.K.. p     h  .t.....#.#.=.=.=.=.#.#...#.d.[ 7   K.K.K.K.",
"d.[ M   K.K.$   p  .,...#.#.#.#.#.#.#.#.=.#.#.#...x.[   X K.K.K.",
") g.4.K   3 #   n #.#.,.#.#.#.#.#.#.#.#.#.#.#.#.,.~ ( R   2 K.K.",
"M ..,.c.K   %   V #.#.( #.#.=.=.#.#.#.#.#.#.#.#.4.j o  .h   K.K.",
"  k I _ g.D   @ R x.Q   ! t...=.#.=.#.#.#.#.#.#.t.B   ..R   K.K.",
"K.  h c I I   8 ( g.T   H t...=.=.=.=.=.#.#.#.#.,.) E ,.[ O X K.",
"K.  , j c i   h _ 0.[ t Q t...=.=.=.=.=.=.=.#.#.#.,.0.#.4.v   K.",
"K.K.    j a   v  .=.=...=.#.#.#.#.=.=.=.#.#.#.#.#.#.....t.H   K.",
"K.K.+         m ..#.#.#.#.#.#.#.#.#.=.=.#.#.#.#.#.#.#.#.l.Q   K.",
"K.K.  7 v j   N #.,...#.#.#.#...#.#.#.=.#.,.t.,.....,.( b R   K.",
"K.  , k F P   V ..[ 4.#...#.4.t.=...#...t.E M ) d...4.M   5 & K.",
"K.  9 v B /   V 4.l P d.0.#.A A ..,...=.} .   . Q m.^   K.K.  K.",
"K.  9 n x  .D j d.(   D ' D     h } 0.t.A   6 K.  U j K.K.K.K.K.",
"K.  2 m h ~ ..P #.t.F       r f   8 ) R   *   K.K.  K.K.K.K.K.K.",
"K.K.* v x F ,.=.#.=. .w G F   r e . .   <   S 2 K.K.K.K.K.K.K.K.",
"K.K.  k n x _ ,.#...d.F ! b.P   d 4 = y > 1 X.B K.K.K.K.K.K.K.K.",
"K.K.  g m k H #.#...d.I L S.8.!  .| u w   F x.)   K.K.K.K.K.K.K.",
"K.K.  i k v x ) ,...,._ f G.Z.4.C.H.`   t  .0.#.M K.K.K.K.K.K.K.",
"K.K.K.: j p t ^ ,...=.} 4 V.H.N.G.H.]   M F ( n.[   K.K.K.K.K.K.",
"K.K.K.  j d   ^ 0.g.R i   p.H.D.F.H.Y   p   1 P R 7 K.K.K.K.K.K.",
"K.K.K.K.+ 6   R #.[ d     S H.H.J.A.w   K.K.K.  K.K.K.K.K.K.K.K.",
"K.K.K.K.K.K.K.; i o   K.K.  W B.{ y   K.K.K.K.K.K.K.K.K.K.K.K.K.",
"K.K.K.K.K.K.K.K.K.K.K.K.K.K.        K.K.K.K.K.K.K.K.K.K.K.K.K.K."
};
