/* XPM */
static const char *c3RvbmUtd2FsbF9waXg_[] = {
/* columns rows colors chars-per-pixel */
"32 32 153 2 ",
"   c #493616",
".  c #4C3D1E",
"X  c #533B15",
"o  c #503C19",
"O  c #544023",
"+  c #594723",
"@  c #5E4924",
"#  c #5E4B2D",
"$  c #624B26",
"%  c #634E2D",
"&  c #65512E",
"*  c #6A532D",
"=  c #675434",
"-  c #6C5734",
";  c #6E5935",
":  c #6C5A3B",
">  c #725C33",
",  c #735E3C",
"<  c #7A643C",
"1  c #756243",
"2  c #7A6542",
"3  c #7F6846",
"4  c #796648",
"5  c #7C694A",
"6  c #826B45",
"7  c #846D49",
"8  c #86704A",
"9  c #8A724C",
"0  c #826E52",
"q  c #867354",
"w  c #8D7653",
"e  c #8E7955",
"r  c #8C7758",
"t  c #8C7A5A",
"y  c #927B55",
"u  c #927E5C",
"i  c #8E7F60",
"p  c #978057",
"a  c #96815C",
"s  c #9B835D",
"d  c #9E885F",
"f  c #948163",
"g  c #9B8562",
"h  c #9E8963",
"j  c #9E8768",
"k  c #9D8A6B",
"l  c #9F8B70",
"z  c #A28B65",
"x  c #A38D6C",
"c  c #A6916D",
"v  c #AA936D",
"b  c #AF986F",
"n  c #A69272",
"m  c #AB9573",
"M  c #AD9875",
"N  c #A79378",
"B  c #A79879",
"V  c #AD9B7B",
"C  c #B29B75",
"Z  c #B89F77",
"A  c #B39D7B",
"S  c #B7A077",
"D  c #B6A17C",
"F  c #BAA37D",
"G  c #B39E82",
"H  c #B6A483",
"J  c #BBA583",
"K  c #BEA984",
"L  c #BAA689",
"P  c #B7A889",
"I  c #BEAC8C",
"U  c #C2AB85",
"Y  c #C4AD8B",
"T  c #C6B087",
"R  c #C6B18B",
"E  c #CAB38D",
"W  c #CEB88F",
"Q  c #C5B392",
"!  c #CBB592",
"~  c #CDB995",
"^  c #C7B598",
"/  c #CAB598",
"(  c #CEBB9A",
")  c #D2BB95",
"_  c #D3BE9B",
"`  c #D6C097",
"'  c #D4C19D",
"]  c #DAC39D",
"[  c #CFC0A1",
"{  c #D6C3A2",
"}  c #DBC5A2",
"|  c #DBC9A5",
" . c #DDC9A4",
".. c #DFC9A4",
"X. c #DFCDA7",
"o. c #DDC9A4",
"O. c #D6C7A8",
"+. c #DAC6AB",
"@. c #DDC6A8",
"#. c #DCC9A8",
"$. c #DDCAA9",
"%. c #DECAA9",
"&. c #DDCAAA",
"*. c #DFCAAB",
"=. c #DECBAA",
"-. c #DECBAD",
";. c #DCCAAA",
":. c #E1C9A3",
">. c #E2CBA2",
",. c #E3CCA3",
"<. c #E0CAA5",
"1. c #E2CAA4",
"2. c #E3CBA5",
"3. c #E1CBA6",
"4. c #E0CCA7",
"5. c #E2CCA7",
"6. c #E4CCA6",
"7. c #E1CAA4",
"8. c #E0C9A9",
"9. c #E2CBAB",
"0. c #E1CFA9",
"q. c #E2CEA9",
"w. c #E1CDAA",
"e. c #E4CDAB",
"r. c #E5CFAA",
"t. c #E0CBAC",
"y. c #E3CFAC",
"u. c #E6CFAD",
"i. c #E3CDAB",
"p. c #E3D1AB",
"a. c #E6D0AB",
"s. c #E5D1AE",
"d. c #E5D1AD",
"f. c #E8D0AA",
"g. c #EAD2AC",
"h. c #EDD6AD",
"j. c #EED7AE",
"k. c #EAD3AD",
"l. c #E3CEB1",
"z. c #E4CFB2",
"x. c #E4CFB2",
"c. c #E7D2B3",
"v. c #E5D3B2",
"b. c #E8D4B3",
"n. c #EFD7B1",
"m. c #E8D3B4",
"M. c #E9D5B4",
"N. c #EBD4B3",
"B. c #EBD9B7",
"V. c #EDD6B9",
"C. c #EDD9B9",
"Z. c #F1D9B4",
"A. c #F3DCBA",
/* pixels */
"O f G l q # q 4 5 t c A J Y K H m x k % 1 u f j n x q = O   4 % ",
"N ^ +.-.^ u V *._ { | | X.p.q.| *.*.{ q Y { _ *.( } *.Q j , m V ",
"/ l.z.m.c._ A } b.y.} _ ' } o.o.} d.{ 2 / ' ( { ' ' *.q.Y u J K ",
"Y *.} { t.M.g J ! _ ..q.X.` R F R ' ' q K } ' } ' Q Q _ R h Y K ",
"Y 9.9.u.9.} y o.e.e.5.] ) R U U Y ) ] v x _ ) ) ] o.1.} J s ) ] ",
"C ..e.5.{ _ 8 J E F v d y 9 y d C F ! F h ] ] ] _ } 1.] Z y ) a.",
"u W _ _ _ W 6 s a s z b v y > $ 7 8 d y g ) _ >.! Y E ) C 6 C Y ",
"d F W f.o.Z y ) 6.o.,.h.h.) b p ! E E z W 1.) o.J m D E g X < y ",
"8 ) S ) >.b g n.o.g.] ] 1.) C w U ) 1.>.F _ ) C F J Y U y Y ) ] ",
"y U F ] h.C C ] ) 1.o.o.o.W v ; J Y W ] D E _ U U J F Z y ] o.) ",
"< z C C v * m b.q.1._ } g.b.K @ z Y o.b.v y z y w e 9 7 ; R ] ! ",
"> y z b F 6 Z d.5.d.q.} _ } Y ; A ] o.] w 6 c z Z D M g ; C Y E ",
"K a._ _ ' a c y.d.c.y.y.} *.Y - ~ q.} _ M ~ A.} q...} ( e A J R ",
"F k.) Y F 2 g B._ } *.C.V.z.^ 0 Y _ } ~ V ..C._ *.' ..d.A _ ~ ( ",
"' | ~ D V + - q 4 t f n k q 0 1 O.{ M./ k { y.c.y.*.*.y.V { ( / ",
"' ' d.R A + m ! { x : q L L k 4 5 , k f 5 H n m A H H n , n V V ",
"( p.{ } D 2 ` ..f.E s e.n.} C._ r H L G ( { Q Y Y u % c n c Y Y ",
"B O.=.v.H ; Y 6.6.) m ] ] o.A.*.H @.V.V.V.@._ } u.H M V.m.9.9.1.",
"V ;.' -._ g ] A.:.) J 1.o...c.c.K H H K A x f j _ n Z { Q ! ~ q.",
"k [ V B M 2 9 9 b p d ] g.5.{ M.x g x A A A H H x 7 K ..Y U D ! ",
". H I Q _ K Y E U z a ) g.a._ } j L @.m.9.u.A.A.Y 7 M C y y 7 e ",
": O.=.;.*.} o.>.Z.>.v F _ e.} ~ n ( m.9.{ 9.9.{ K 2 M Y Z v 7 @ ",
"B v.' ' _ ' _ ) ] ] y z K ' y._ x ~ { ) { 9.1.9.} f R 5.g.A.A.) ",
"V O.^ | } o.] ] ] >.a D ! R ' ~ g { A.u.9._ ) u.o.c _ g.o.` f.E ",
"V I Q ( ' ' e.] ) Z 8 D K ! _ ! r ' u.V.e.9._ 9.o.v D o.5.) k.v ",
"t H I H A F Y C C y * g K E ' Y $ ( A.m.1.Z.9.o.] h h R _ ] o.C ",
". 5 q q u h C v z 8 < d C y u , % Y 1.~ Q b.e.d.~ d d K E ] T C ",
"P ^ I ( q.} 1.f.h.:.o.) F @ & o $ 7 3 2 3 w 2 a 8 , 8 z v F d v ",
"( v.O.;.M.] ' o.] ] h.>.~ 8 K ~ Y Y Y Y Y F y D ` ! ) ` R E y y ",
"q ( O.( } } } ] ) E ] ] ) y ! } _ 9.u.9.o.] C ] o.] ` ] >.k.E b ",
"q ;.B.{ *.] ) W F C U ] ] x ! _ ) ) ) E E ) c ) ] o.] W ` ] W p ",
"f { [ Q ( J v v D C C W ! z Q ' _ K Z D K D < h U ) ] T U F U < "
};
